Frankenstein.Conquers.The.World.1965.XviD-NvadR 
http://www.imdb.com/title/tt0059205/

With Berlin falling, Nazi doctors ship the beating heart 
of the Frankenstein monster to Tokyo by U-boat. A Japanese 
military scientist (Takashi Shimura) in Hiroshima intends 
to use the heart, which cannot die, to create an army of 
invincible soldiers. Unfortunately, the heart is barely 
unpacked when the U.S. Air Force A-bombs the city. Nothing 
more is heard of the matter until a feral boy with a strange 
brow shows up fifteen years later, living on stolen pets and 
hiding in caves outside of Hiroshima.

American scientist James Bowen (Nick Adams) teams with his 
assistants Drs. Yuko Kawaji and Sueko Togami (Tadao Takashima 
& Kumi Mizumo) to capture and study the unpredictable child, 
who becomes aggressive only when he hears rock 'n' roll music 
on the television. This 'atomic Frankenstein' (Koji Furuhata) 
grows larger, becoming a problem for the scientists; by the 
time he escapes he is already fifteen feet tall. Nobody can 
locate Frankenstein until attacks in mines, an oil facility 
and a hot springs raise suspicions that the wild man is 
responsible. But a new subterranean digging monster with a 
glowing horn called Baragon (Haruo Nakajima) is behind the 
chaos. Frankenstein is quick to engage Baragon in a fight to 
the finish.

--------------- SCREENSHOTS ---------------- 
http://www.postimg.com/40000/photo-39214.jpg
 
http://www.postimg.com/40000/photo-39215.jpg
 
http://www.postimg.com/40000/photo-39216.jpg
 
http://www.postimg.com/40000/photo-39217.jpg
 
http://www.postimg.com/40000/photo-39218.jpg
 
http://www.postimg.com/40000/photo-39219.jpg
--------------------------------------------

   General

      Complete name : Frankenstein.Conquers.The.World.1965.XviD-NvadR.avi

      Format : AVI
      Format/Info : Audio Video Interleave
      File size : 699 MiB
      Duration : 1h 24mn
      Overall bit rate : 1 152 Kbps
      Writing library : VirtualDub-MPEG2 build 24586/release

   Video 

      Format : MPEG-4 Visual
      Format profile : AdvancedSimple@L5
      Format settings, BVOP : Yes
      Format settings, QPel : No
      Format settings, GMC : No warppoints
      Format settings, Matrix : Default (H.263)
      Muxing mode : Packed bitstream
      Codec ID : XVID
      Codec ID/Hint : XviD
      Duration : 1h 24mn
      Bit rate : 1 031 Kbps
      Width : 640 pixels
      Height : 360 pixels
      Display aspect ratio : 16:9
      Frame rate : 23.976 fps
      Resolution : 24 bits
      Colorimetry : 4:2:0
      Scan type : Progressive
      Bits/(Pixel*Frame) : 0.187
      Stream size : 626 MiB (89%)
      Writing library : XviD 63

   Audio 

      Format : AC-3
      Format/Info : Audio Coding 3
      Codec ID : 2000
      Duration : 1h 24mn
      Bit rate mode : Constant
      Bit rate : 112 Kbps
      Channel(s) : 2 channels
      Channel positions : L R
      Sampling rate : 48.0 KHz
      Stream size : 68.0 MiB (10%)
      Alignment : Aligned on interleaves
      Interleave, duration : 42 ms (1.00 video frame)
      Interleave, preload duration : 512 ms
      
   Encoders Note
   
      This is a rarity, a Japanese Kaiju film released on a
      region 2 DVD (Japanese) with a English only soundtrack
      with Japanese Subs..  I know I am scratching my head on
      this one also, but it was released by Toho DVD.
      Product# TDV2698D (barcode) T4988104021274   
      
      
   Source
   
      Region 2 (Japan) DVD9 (NTSC) 720 x 480 29.970 fps 2.35:1
      Color AC3 Digital Dolby 2CH Stereo 192 Kb/s 48.0 KHz
      

      
-------------- TORRENT STATS -------------- 
http://torrent-stats.info/428c/5d752948.png